<svg version="1.2" xmlns="http://www.w3.org/2000/svg" viewBox="0 0 1500 1000" width="1500" height="1000">
	<title>3162507-ai</title>
	<defs>
		<radialGradient id="g1" cx="750" cy="987.9" r="1136.7" gradientUnits="userSpaceOnUse">
			<stop offset="0" stop-color="#ffffff" stop-opacity="0"/>
			<stop offset="1" stop-color="#060b32"/>
		</radialGradient>
	</defs>
	<style>
		tspan { white-space:pre } 
		.s0 { fill: #ffffff } 
		.s1 { mix-blend-mode: multiply;fill: #00003a } 
		.s2 { fill: #d157a7 } 
		.s3 { opacity: .8;fill: #d157a7 } 
		.s4 { opacity: .6;mix-blend-mode: multiply;fill: url(#g1) } 
	</style>
	<g id="BACKGROUND">
		<path id="&lt;Path&gt;" class="s0" d="m1500 1000h-1500v-1000h1500z"/>
		<path id="&lt;Path&gt;" class="s1" d="m1500 1000h-1500v-1000h1500z"/>
	</g>
	<g id="OBJECTS">
		<g id="&lt;Group&gt;">
			<g id="&lt;Group&gt;">
				<g id="&lt;Group&gt;" style="opacity: .6">
					<path id="&lt;Compound Path&gt;" fill-rule="evenodd" class="s2" d="m100.8 346v12h-11.9v-12zm-1.4 1.3h-9.3v9.4h9.3z"/>
					<path id="&lt;Compound Path&gt;" fill-rule="evenodd" class="s2" d="m79.5 367.3h10.7v12h-12v-10.7h-10.7v-22.6h12zm-10.6-10.7h9.3v-9.3h-9.3zm9.3 10.7v-9.4h-9.3v9.4zm1.3 1.3v9.3h9.3v-9.3z"/>
					<path id="&lt;Compound Path&gt;" fill-rule="evenodd" class="s2" d="m67.5 324.7h12v12h-12zm1.4 10.6h9.3v-9.3h-9.3z"/>
					<path id="&lt;Compound Path&gt;" fill-rule="evenodd" class="s2" d="m68.9 315.3h-12v-11.9h12zm-1.4-10.7h-9.3v9.3h9.3z"/>
				</g>
				<g id="&lt;Group&gt;" style="opacity: .5">
					<path id="&lt;Compound Path&gt;" fill-rule="evenodd" class="s2" d="m1138.1 162.7h11.9v12h-11.9zm1.3 10.6h9.3v-9.3h-9.3z"/>
					<path id="&lt;Compound Path&gt;" fill-rule="evenodd" class="s2" d="m1159.4 153.3h-10.7v-11.9h12v10.6h10.7v22.7h-12zm10.6 10.6h-9.3v9.4h9.3zm-9.3-10.7v9.3h9.3v-9.3zm-1.3-1.3v-9.4h-9.3v9.4z"/>
					<path id="&lt;Compound Path&gt;" fill-rule="evenodd" class="s2" d="m1171.4 196h-12v-12h12zm-1.4-10.7h-9.3v9.4h9.3z"/>
					<path id="&lt;Compound Path&gt;" fill-rule="evenodd" class="s2" d="m1182 205.3v12h-12v-12zm-1.3 1.3h-9.3v9.4h9.3z"/>
				</g>
				<g id="&lt;Group&gt;">
					<path id="&lt;Compound Path&gt;" fill-rule="evenodd" class="s2" d="m712.2 118.8v12h-12v-12zm-1.3 1.4h-9.4v9.3h9.4z"/>
					<path id="&lt;Compound Path&gt;" fill-rule="evenodd" class="s2" d="m690.9 140.2h10.6v11.9h-12v-10.6h-10.6v-22.7h12zm-10.7-10.6h9.3v-9.4h-9.3zm9.3 10.7v-9.3h-9.3v9.3zm1.3 1.3v9.4h9.4v-9.4z"/>
					<path id="&lt;Compound Path&gt;" fill-rule="evenodd" class="s2" d="m678.9 97.5h12v12h-12zm1.3 10.7h9.3v-9.4h-9.3z"/>
					<path id="&lt;Compound Path&gt;" fill-rule="evenodd" class="s2" d="m680.2 88.2h-12v-12h12zm-1.3-10.7h-9.4v9.4h9.4z"/>
				</g>
				<g id="&lt;Group&gt;" style="opacity: .5">
					<path id="&lt;Path&gt;" class="s3" d="m1308.2 496.2v-10.7h10.7v10.7z"/>
					<path id="&lt;Path&gt;" class="s3" d="m1297.5 517.5v-10.7h10.7v10.7z"/>
					<path id="&lt;Path&gt;" class="s3" d="m1286.9 506.8v-10.6h10.6v10.6z"/>
					<path id="&lt;Path&gt;" class="s3" d="m1286.9 485.5v-10.7h10.6v10.7z"/>
					<path id="&lt;Path&gt;" class="s3" d="m1265.6 464.2v-10.7h10.6v10.7z"/>
				</g>
				<g id="&lt;Group&gt;" style="opacity: .4">
					<path id="&lt;Path&gt;" class="s3" d="m493.8 689.5v10.7h-10.6v-10.7z"/>
					<path id="&lt;Path&gt;" class="s3" d="m504.5 668.2v10.6h-10.7v-10.6z"/>
					<path id="&lt;Path&gt;" class="s3" d="m515.2 678.8v10.7h-10.7v-10.7z"/>
					<path id="&lt;Path&gt;" class="s3" d="m515.2 700.2v10.6h-10.7v-10.6z"/>
					<path id="&lt;Path&gt;" class="s3" d="m536.5 721.5v10.6h-10.7v-10.6z"/>
				</g>
				<g id="&lt;Group&gt;" style="opacity: .4">
					<path id="&lt;Path&gt;" class="s3" d="m680.2 433.1h11v10.4h-11z"/>
					<path id="&lt;Path&gt;" class="s3" d="m680.2 453.2h11v10.3h-11z"/>
					<path id="&lt;Path&gt;" class="s3" d="m680.2 473.2h11v10.3h-11z"/>
				</g>
				<g id="&lt;Group&gt;">
					<path id="&lt;Path&gt;" class="s3" d="m76.3 83.1h11v10.4h-11z"/>
					<path id="&lt;Path&gt;" class="s3" d="m76.3 103.2h11v10.3h-11z"/>
					<path id="&lt;Path&gt;" class="s3" d="m76.3 123.2h11v10.3h-11z"/>
				</g>
				<g id="&lt;Group&gt;" style="opacity: .5">
					<path id="&lt;Path&gt;" class="s3" d="m329.9 450.2v-34.7h34v14h-20v20.7z"/>
				</g>
				<g id="&lt;Group&gt;" style="opacity: .5">
					<g id="&lt;Group&gt;">
						<path id="&lt;Compound Path&gt;" fill-rule="evenodd" class="s2" d="m508 203h-13v-30.2h29.7v13h-16.7zm-11.7-1.3h10.4v-17.2h16.6v-10.4h-27z"/>
					</g>
				</g>
				<g id="&lt;Group&gt;" style="opacity: .8">
					<path id="&lt;Path&gt;" class="s2" d="m355.9 213.5h-18.1v-106.1h18.1z"/>
				</g>
				<g id="&lt;Group&gt;" style="opacity: .5">
					<path id="&lt;Path&gt;" class="s3" d="m1036.6 796.9h-14.5v-84.9h14.5z"/>
				</g>
				<g id="&lt;Group&gt;" style="opacity: .4">
					<g id="&lt;Group&gt;">
						<path id="&lt;Compound Path&gt;" fill-rule="evenodd" class="s2" d="m695.4 669.8h-19.4v-107.4h19.4zm-18.1-1.4h16.8v-104.8h-16.8z"/>
					</g>
				</g>
				<g id="&lt;Group&gt;">
					<path id="&lt;Path&gt;" class="s3" d="m1286.2 109.6h11v10.4h-11z"/>
					<path id="&lt;Path&gt;" class="s3" d="m1286.2 129.7h11v10.3h-11z"/>
					<path id="&lt;Path&gt;" class="s3" d="m1286.2 149.7h11v10.3h-11z"/>
				</g>
				<g id="&lt;Group&gt;" style="opacity: .6">
					<g id="&lt;Group&gt;">
						<path id="&lt;Compound Path&gt;" fill-rule="evenodd" class="s2" d="m1301.4 322.3h-19.4v-107.5h19.4zm-18.1-1.3h16.8v-104.8h-16.8z"/>
					</g>
				</g>
				<g id="&lt;Group&gt;">
					<g id="&lt;Group&gt;">
						<path id="&lt;Compound Path&gt;" fill-rule="evenodd" class="s2" d="m1039.1 264.2h-19.4v-107.5h19.4zm-18.1-1.3h16.8v-104.8h-16.8z"/>
					</g>
				</g>
				<g id="&lt;Group&gt;">
					<path id="&lt;Compound Path&gt;" fill-rule="evenodd" class="s2" d="m1443.1 593.3v12h-12v-12zm-1.3 1.4h-9.3v9.3h9.3z"/>
					<path id="&lt;Compound Path&gt;" fill-rule="evenodd" class="s2" d="m1421.8 614.7h10.7v11.9h-12v-10.6h-10.7v-22.7h12zm-10.7-10.6h9.4v-9.4h-9.4zm9.4 10.7v-9.3h-9.4v9.3zm1.4 1.3v9.4h9.3v-9.4z"/>
					<path id="&lt;Compound Path&gt;" fill-rule="evenodd" class="s2" d="m1409.8 572h12v12h-12zm1.3 10.7h9.4v-9.4h-9.4z"/>
					<path id="&lt;Compound Path&gt;" fill-rule="evenodd" class="s2" d="m1411.1 562.7h-11.9v-12h11.9zm-1.3-10.7h-9.3v9.4h9.3z"/>
				</g>
				<g id="&lt;Group&gt;">
					<g id="&lt;Group&gt;">
						<path id="&lt;Compound Path&gt;" fill-rule="evenodd" class="s2" d="m353 26.5h-12.3v-11.7h12.3zm-10.9-1.3h9.6v-9h-9.6z"/>
					</g>
					<g id="&lt;Group&gt;">
						<path id="&lt;Compound Path&gt;" fill-rule="evenodd" class="s2" d="m353 46.5h-12.3v-11.7h12.3zm-10.9-1.3h9.6v-9h-9.6z"/>
					</g>
					<g id="&lt;Group&gt;">
						<path id="&lt;Compound Path&gt;" fill-rule="evenodd" class="s2" d="m353 66.6h-12.3v-11.7h12.3zm-10.9-1.3h9.6v-9.1h-9.6z"/>
					</g>
				</g>
				<g id="&lt;Group&gt;">
					<g id="&lt;Group&gt;">
						<path id="&lt;Compound Path&gt;" fill-rule="evenodd" class="s2" d="m516 292.2h-12.3v-11.7h12.3zm-11-1.3h9.7v-9h-9.7z"/>
					</g>
					<g id="&lt;Group&gt;">
						<path id="&lt;Compound Path&gt;" fill-rule="evenodd" class="s2" d="m516 312.2h-12.3v-11.7h12.3zm-11-1.3h9.7v-9h-9.7z"/>
					</g>
					<g id="&lt;Group&gt;">
						<path id="&lt;Compound Path&gt;" fill-rule="evenodd" class="s2" d="m516 332.2h-12.3v-11.6h12.3zm-11-1.3h9.7v-9.1h-9.7z"/>
					</g>
				</g>
				<g id="&lt;Group&gt;" style="opacity: .5">
					<g id="&lt;Group&gt;">
						<path id="&lt;Compound Path&gt;" fill-rule="evenodd" class="s2" d="m223.5 281h-29.6v-12.9h16.7v-17.3h12.9zm-28.3-1.3h27v-27.5h-10.3v17.2h-16.7z"/>
					</g>
				</g>
				<g id="&lt;Group&gt;">
					<path id="&lt;Path&gt;" class="s3" d="m203.2 343.5h11v10.3h-11z"/>
					<path id="&lt;Path&gt;" class="s3" d="m203.2 363.5h11v10.4h-11z"/>
					<path id="&lt;Path&gt;" class="s3" d="m203.2 383.6h11v10.3h-11z"/>
				</g>
				<g id="&lt;Group&gt;">
					<g id="&lt;Group&gt;">
						<path id="&lt;Compound Path&gt;" fill-rule="evenodd" class="s2" d="m88 656.5h-12.3v-11.7h12.3zm-11-1.3h9.6v-9h-9.6z"/>
					</g>
					<g id="&lt;Group&gt;">
						<path id="&lt;Compound Path&gt;" fill-rule="evenodd" class="s2" d="m88 676.5h-12.3v-11.7h12.3zm-11-1.3h9.6v-9h-9.6z"/>
					</g>
					<g id="&lt;Group&gt;">
						<path id="&lt;Compound Path&gt;" fill-rule="evenodd" class="s2" d="m88 696.6h-12.3v-11.7h12.3zm-11-1.3h9.6v-9.1h-9.6z"/>
					</g>
				</g>
				<g id="&lt;Group&gt;" style="opacity: .6">
					<g id="&lt;Group&gt;">
						<path id="&lt;Compound Path&gt;" fill-rule="evenodd" class="s2" d="m1166.2 568.5h-12.3v-11.7h12.3zm-11-1.3h9.7v-9h-9.7z"/>
					</g>
					<g id="&lt;Group&gt;">
						<path id="&lt;Compound Path&gt;" fill-rule="evenodd" class="s2" d="m1166.2 588.5h-12.3v-11.7h12.3zm-11-1.3h9.7v-9h-9.7z"/>
					</g>
					<g id="&lt;Group&gt;">
						<path id="&lt;Compound Path&gt;" fill-rule="evenodd" class="s2" d="m1166.2 608.6h-12.3v-11.7h12.3zm-11-1.3h9.7v-9.1h-9.7z"/>
					</g>
				</g>
				<g id="&lt;Group&gt;">
					<g id="&lt;Group&gt;">
						<path id="&lt;Compound Path&gt;" fill-rule="evenodd" class="s2" d="m1035.5 70.5h-12.3v-11.7h12.3zm-11-1.3h9.7v-9h-9.7z"/>
					</g>
					<g id="&lt;Group&gt;">
						<path id="&lt;Compound Path&gt;" fill-rule="evenodd" class="s2" d="m1035.5 90.5h-12.3v-11.7h12.3zm-11-1.3h9.7v-9h-9.7z"/>
					</g>
					<g id="&lt;Group&gt;">
						<path id="&lt;Compound Path&gt;" fill-rule="evenodd" class="s2" d="m1035.5 110.6h-12.3v-11.7h12.3zm-11-1.3h9.7v-9.1h-9.7z"/>
					</g>
				</g>
				<g id="&lt;Group&gt;" style="opacity: .5">
					<g id="&lt;Group&gt;">
						<path id="&lt;Path&gt;" class="s3" d="m320.2 563.5v-10.6h10.7v10.6z"/>
						<path id="&lt;Path&gt;" class="s3" d="m330.9 574.2v-10.7h10.6v10.7z"/>
						<path id="&lt;Path&gt;" class="s3" d="m341.5 584.9v-10.7h10.7v10.7z"/>
						<path id="&lt;Path&gt;" class="s3" d="m352.2 595.5v-10.6h10.7v10.6z"/>
						<path id="&lt;Path&gt;" class="s3" d="m362.9 606.2v-10.7h10.6v10.7z"/>
					</g>
					<g id="&lt;Group&gt;">
						<path id="&lt;Path&gt;" class="s3" d="m362.9 563.5v-10.6h10.6v10.6z"/>
						<path id="&lt;Path&gt;" class="s3" d="m352.2 574.2v-10.7h10.7v10.7z"/>
						<path id="&lt;Path&gt;" class="s3" d="m330.9 595.5v-10.6h10.6v10.6z"/>
						<path id="&lt;Path&gt;" class="s3" d="m320.2 606.2v-10.7h10.7v10.7z"/>
					</g>
				</g>
				<g id="&lt;Group&gt;" style="opacity: .6">
					<g id="&lt;Group&gt;">
						<path id="&lt;Path&gt;" class="s3" d="m664.4 257.4v-8.5h8.5v8.5z"/>
						<path id="&lt;Path&gt;" class="s3" d="m672.9 265.9v-8.5h8.5v8.5z"/>
						<path id="&lt;Path&gt;" class="s3" d="m681.4 274.4v-8.5h8.6v8.5z"/>
						<path id="&lt;Path&gt;" class="s3" d="m690 283v-8.6h8.5v8.6z"/>
						<path id="&lt;Path&gt;" class="s3" d="m698.5 291.5v-8.5h8.5v8.5z"/>
					</g>
					<g id="&lt;Group&gt;">
						<path id="&lt;Path&gt;" class="s3" d="m698.5 257.4v-8.5h8.5v8.5z"/>
						<path id="&lt;Path&gt;" class="s3" d="m690 265.9v-8.5h8.5v8.5z"/>
						<path id="&lt;Path&gt;" class="s3" d="m672.9 283v-8.6h8.5v8.6z"/>
						<path id="&lt;Path&gt;" class="s3" d="m664.4 291.5v-8.5h8.5v8.5z"/>
					</g>
				</g>
				<g id="&lt;Group&gt;">
					<g id="&lt;Group&gt;">
						<path id="&lt;Path&gt;" class="s3" d="m846.9 546.8v-10.6h10.6v10.6z"/>
						<path id="&lt;Path&gt;" class="s3" d="m857.5 557.5v-10.7h10.7v10.7z"/>
						<path id="&lt;Path&gt;" class="s3" d="m868.2 568.2v-10.7h10.7v10.7z"/>
						<path id="&lt;Path&gt;" class="s3" d="m878.9 578.8v-10.6h10.6v10.6z"/>
						<path id="&lt;Path&gt;" class="s3" d="m889.5 589.5v-10.7h10.7v10.7z"/>
					</g>
					<g id="&lt;Group&gt;">
						<path id="&lt;Path&gt;" class="s3" d="m889.5 546.8v-10.6h10.7v10.6z"/>
						<path id="&lt;Path&gt;" class="s3" d="m878.9 557.5v-10.7h10.6v10.7z"/>
						<path id="&lt;Path&gt;" class="s3" d="m857.5 578.8v-10.6h10.7v10.6z"/>
						<path id="&lt;Path&gt;" class="s3" d="m846.9 589.5v-10.7h10.6v10.7z"/>
					</g>
				</g>
				<g id="&lt;Group&gt;">
					<g id="&lt;Group&gt;">
						<path id="&lt;Path&gt;" class="s3" d="m1141.4 301.6v-7.4h7.5v7.4z"/>
						<path id="&lt;Path&gt;" class="s3" d="m1148.9 309.1v-7.5h7.4v7.5z"/>
						<path id="&lt;Path&gt;" class="s3" d="m1156.3 316.6v-7.5h7.5v7.5z"/>
						<path id="&lt;Path&gt;" class="s3" d="m1163.8 324v-7.4h7.4v7.4z"/>
						<path id="&lt;Path&gt;" class="s3" d="m1171.2 331.5v-7.5h7.5v7.5z"/>
					</g>
					<g id="&lt;Group&gt;">
						<path id="&lt;Path&gt;" class="s3" d="m1171.2 301.6v-7.4h7.5v7.4z"/>
						<path id="&lt;Path&gt;" class="s3" d="m1163.8 309.1v-7.5h7.4v7.5z"/>
						<path id="&lt;Path&gt;" class="s3" d="m1148.9 324v-7.4h7.4v7.4z"/>
						<path id="&lt;Path&gt;" class="s3" d="m1141.4 331.5v-7.5h7.5v7.5z"/>
					</g>
				</g>
				<g id="&lt;Group&gt;">
					<g id="&lt;Group&gt;">
						<path id="&lt;Path&gt;" class="s3" d="m1402.5 203.1v-7.5h7.4v7.5z"/>
						<path id="&lt;Path&gt;" class="s3" d="m1409.9 210.5v-7.4h7.5v7.4z"/>
						<path id="&lt;Path&gt;" class="s3" d="m1417.4 218v-7.5h7.5v7.5z"/>
						<path id="&lt;Path&gt;" class="s3" d="m1424.9 225.5v-7.5h7.4v7.5z"/>
						<path id="&lt;Path&gt;" class="s3" d="m1432.3 232.9v-7.4h7.5v7.4z"/>
					</g>
					<g id="&lt;Group&gt;">
						<path id="&lt;Path&gt;" class="s3" d="m1432.3 203.1v-7.5h7.5v7.5z"/>
						<path id="&lt;Path&gt;" class="s3" d="m1424.9 210.5v-7.4h7.4v7.4z"/>
						<path id="&lt;Path&gt;" class="s3" d="m1409.9 225.5v-7.5h7.5v7.5z"/>
						<path id="&lt;Path&gt;" class="s3" d="m1402.5 232.9v-7.4h7.4v7.4z"/>
					</g>
				</g>
				<g id="&lt;Group&gt;">
					<g id="&lt;Group&gt;">
						<path id="&lt;Path&gt;" class="s3" d="m491.2 408.6v-7.5h7.4v7.5z"/>
						<path id="&lt;Path&gt;" class="s3" d="m498.6 416v-7.4h7.5v7.4z"/>
						<path id="&lt;Path&gt;" class="s3" d="m506.1 423.5v-7.5h7.5v7.5z"/>
						<path id="&lt;Path&gt;" class="s3" d="m513.6 431v-7.5h7.4v7.5z"/>
						<path id="&lt;Path&gt;" class="s3" d="m521 438.4v-7.4h7.5v7.4z"/>
					</g>
					<g id="&lt;Group&gt;">
						<path id="&lt;Path&gt;" class="s3" d="m521 408.6v-7.5h7.5v7.5z"/>
						<path id="&lt;Path&gt;" class="s3" d="m513.6 416v-7.4h7.4v7.4z"/>
						<path id="&lt;Path&gt;" class="s3" d="m498.6 431v-7.5h7.5v7.5z"/>
						<path id="&lt;Path&gt;" class="s3" d="m491.2 438.4v-7.4h7.4v7.4z"/>
					</g>
				</g>
				<g id="&lt;Group&gt;">
					<g id="&lt;Group&gt;">
						<path id="&lt;Path&gt;" class="s3" d="m63.2 198v-7.4h7.4v7.4z"/>
						<path id="&lt;Path&gt;" class="s3" d="m70.6 205.5v-7.5h7.5v7.5z"/>
						<path id="&lt;Path&gt;" class="s3" d="m78.1 213v-7.5h7.4v7.5z"/>
						<path id="&lt;Path&gt;" class="s3" d="m85.5 220.4v-7.4h7.5v7.4z"/>
						<path id="&lt;Path&gt;" class="s3" d="m93 227.9v-7.5h7.5v7.5z"/>
					</g>
					<g id="&lt;Group&gt;">
						<path id="&lt;Path&gt;" class="s3" d="m93 198v-7.4h7.5v7.4z"/>
						<path id="&lt;Path&gt;" class="s3" d="m85.5 205.5v-7.5h7.5v7.5z"/>
						<path id="&lt;Path&gt;" class="s3" d="m70.6 220.4v-7.4h7.5v7.4z"/>
						<path id="&lt;Path&gt;" class="s3" d="m63.2 227.9v-7.5h7.4v7.5z"/>
					</g>
				</g>
				<path id="&lt;Compound Path&gt;" fill-rule="evenodd" class="s2" d="m881 316.4v7.5h8.5v8.5h8.5v9.6h-9.5v-8.5h-8.6v-8.5h-7.4v8.5h-8.6v8.5h-9.5v-9.6h8.5v-8.5h8.5v-7.5h-8.5v-8.5h-8.5v-9.6h9.5v8.6h8.6v8.5h7.4v-8.5h8.6v-8.6h9.5v9.6h-8.5v8.5zm8.5-9.5h7.5v-7.5h-7.5zm-8.5 8.5h7.5v-7.5h-7.5zm-18.1-8.5v-7.5h-7.5v7.5zm8.6 8.5v-7.4h-7.5v7.4zm-8.5 18.2h-7.5v7.4h7.5zm8.5-8.5h-7.5v7.5h7.5zm18.1 8.5v7.5h7.5v-7.5zm-8.6-8.5v7.4h7.5v-7.4zm-1-8.6h-7.5v7.5h7.5z"/>
				<g id="&lt;Group&gt;">
					<path id="&lt;Path&gt;" class="s3" d="m1303.8 670h-17.6v-40.8h-9.8v-8h17.8v40.9h9.6z"/>
				</g>
				<g id="&lt;Group&gt;" style="opacity: .4">
					<path id="&lt;Path&gt;" class="s3" d="m883.9 223.9h-17.6v-40.8h-9.8v-8h17.7v40.8h9.7z"/>
				</g>
				<g id="&lt;Group&gt;" style="opacity: .5">
					<path id="&lt;Path&gt;" class="s3" d="m1407.4 85.1h17.7v40.8h9.8v8h-17.8v-40.8h-9.7z"/>
				</g>
				<g id="&lt;Group&gt;" style="opacity: .5">
					<path id="&lt;Path&gt;" class="s2" d="m1040.3 466.7h-12.1v-56.4h-9.8v-1.3h11.1v56.3h10.8z"/>
				</g>
				<g id="&lt;Group&gt;" style="opacity: .5">
					<path id="&lt;Path&gt;" class="s2" d="m216.7 512h-12.1v-33.8h-9.8v-1.4h11.1v33.9h10.8z"/>
				</g>
			</g>
			<g id="&lt;Group&gt;">
			</g>
		</g>
	</g>
	<g id="TEXTURE">
		<path id="&lt;Path&gt;" class="s4" d="m1500 1000h-1500v-1000h1500z"/>
	</g>
</svg>